<svg width="20" height="28" viewBox="0 0 20 28" focusable="false" class="chakra-icon css-onkibi">
<path d="M10 2.52001L11.2239 1.0673L10 0L8.77614 1.0673L10 2.52001ZM10 25.48L8.77614 26.9327L10 28L11.2239 26.9327L10 25.48ZM2.44776 11.626L11.2239 3.97271L8.77614 1.0673L0 8.72063L2.44776 11.626ZM8.77614 3.97271L17.5523 11.626L20 8.72063L11.2239 1.0673L8.77614 3.97271ZM0 19.2794L8.77614 26.9327L11.2239 24.0273L2.44776 16.374L0 19.2794ZM11.2239 26.9327L20 19.2794L17.5523 16.374L8.77614 24.0273L11.2239 26.9327Z" fill="black"/>
</svg>
